HIERARCHY
ROOT Hips
{
  OFFSET 5.84602e-005 68.8428 3.50346
  CHANNELS 6 Xposition Yposition Zposition Zrotation Xrotation Yrotation
  JOINT Spine
  {
    OFFSET 0 8.597 -4.6522
    CHANNELS 3 Zrotation Xrotation Yrotation
    JOINT Spine1
    {
      OFFSET 0 7.8454 0.4098
      CHANNELS 3 Zrotation Xrotation Yrotation
      JOINT Spine2
      {
        OFFSET 0 9.7078 -2.1609
        CHANNELS 3 Zrotation Xrotation Yrotation
        JOINT Neck
        {
          OFFSET 0 21.8761 -0.4549
          CHANNELS 3 Zrotation Xrotation Yrotation
          JOINT Head
          {
            OFFSET 0 12.3537 3.3602
            CHANNELS 3 Zrotation Xrotation Yrotation
            End Site
            {
              OFFSET 0.0001 18.9506 0.5657
            }
          }
        }
        JOINT LeftShoulder
        {
          OFFSET 2.2086 21.1115 7.2329
          CHANNELS 3 Zrotation Xrotation Yrotation
          JOINT LeftArm
          {
            OFFSET 13.1193 3.0282 -4.8998
            CHANNELS 3 Zrotation Xrotation Yrotation
            JOINT LeftForeArm
            {
              OFFSET 27.4081 -0.0973053 -0.2375
              CHANNELS 3 Zrotation Xrotation Yrotation
              JOINT LeftHand
              {
                OFFSET 22.8641 0.0662994 -0.1369
                CHANNELS 3 Zrotation Xrotation Yrotation
                JOINT LeftHandIndex1
                {
                  OFFSET 8.8614 0.775009 2.4612
                  CHANNELS 3 Zrotation Xrotation Yrotation
                  JOINT LeftHandIndex2
                  {
                    OFFSET 3.3146 -0.808304 0.5841
                    CHANNELS 3 Zrotation Xrotation Yrotation
                    JOINT LeftHandIndex3
                    {
                      OFFSET 2.2628 -0.552002 0.3989
                      CHANNELS 3 Zrotation Xrotation Yrotation
                      End Site
                      {
                        OFFSET 1.6102 -0.4807 0.2612
                      }
                    }
                  }
                }
                JOINT LeftHandMiddle1
                {
                  OFFSET 8.9937 0.895004 0.2143
                  CHANNELS 3 Zrotation Xrotation Yrotation
                  JOINT LeftHandMiddle2
                  {
                    OFFSET 4.0984 0.0113983 -0.0242
                    CHANNELS 3 Zrotation Xrotation Yrotation
                    JOINT LeftHandMiddle3
                    {
                      OFFSET 2.2716 0.00689697 -0.0138001
                      CHANNELS 3 Zrotation Xrotation Yrotation
                      End Site
                      {
                        OFFSET 2.0404 -0.1441 0.0027
                      }
                    }
                  }
                }
                JOINT LeftHandRing1
                {
                  OFFSET 8.5234 0.597198 -2.0164
                  CHANNELS 3 Zrotation Xrotation Yrotation
                  JOINT LeftHandRing2
                  {
                    OFFSET 3.7188 -0.188293 -0.2328
                    CHANNELS 3 Zrotation Xrotation Yrotation
                    JOINT LeftHandRing3
                    {
                      OFFSET 2.1191 -0.106598 -0.1332
                      CHANNELS 3 Zrotation Xrotation Yrotation
                      End Site
                      {
                        OFFSET 1.8737 -0.2304 -0.0886
                      }
                    }
                  }
                }
                JOINT LeftHandPinky1
                {
                  OFFSET 7.9094 -0.601089 -3.4825
                  CHANNELS 3 Zrotation Xrotation Yrotation
                  JOINT LeftHandPinky2
                  {
                    OFFSET 2.2874 -0.477005 -0.6314
                    CHANNELS 3 Zrotation Xrotation Yrotation
                    JOINT LeftHandPinky3
                    {
                      OFFSET 1.6774 -0.349396 -0.4633
                      CHANNELS 3 Zrotation Xrotation Yrotation
                      End Site
                      {
                        OFFSET 1.4888 -0.4091 -0.3416
                      }
                    }
                  }
                }
                JOINT LeftHandThumb1
                {
                  OFFSET 1.833 -1.3875 1.3896
                  CHANNELS 3 Zrotation Xrotation Yrotation
                  JOINT LeftHandThumb2
                  {
                    OFFSET 3.4129 -1.121 2.5732
                    CHANNELS 3 Zrotation Xrotation Yrotation
                    JOINT LeftHandThumb3
                    {
                      OFFSET 2.2474 -0.804199 1.6192
                      CHANNELS 3 Zrotation Xrotation Yrotation
                      End Site
                      {
                        OFFSET 1.6527 -0.5689 1.1317
                      }
                    }
                  }
                }
              }
            }
          }
        }
        JOINT RightShoulder
        {
          OFFSET -2.2086 21.1115 7.2329
          CHANNELS 3 Zrotation Xrotation Yrotation
          JOINT RightArm
          {
            OFFSET -13.1216 3.0287 -4.9007
            CHANNELS 3 Zrotation Xrotation Yrotation
            JOINT RightForeArm
            {
              OFFSET -27.4081 -0.0973053 -0.2375
              CHANNELS 3 Zrotation Xrotation Yrotation
              JOINT RightHand
              {
                OFFSET -22.8641 0.0664063 -0.1369
                CHANNELS 3 Zrotation Xrotation Yrotation
                JOINT RightHandIndex1
                {
                  OFFSET -8.8614 0.774994 2.4612
                  CHANNELS 3 Zrotation Xrotation Yrotation
                  JOINT RightHandIndex2
                  {
                    OFFSET -3.3146 -0.808304 0.5841
                    CHANNELS 3 Zrotation Xrotation Yrotation
                    JOINT RightHandIndex3
                    {
                      OFFSET -2.2628 -0.552002 0.3989
                      CHANNELS 3 Zrotation Xrotation Yrotation
                      End Site
                      {
                        OFFSET -1.6102 -0.4807 0.2612
                      }
                    }
                  }
                }
                JOINT RightHandMiddle1
                {
                  OFFSET -8.9937 0.894989 0.2143
                  CHANNELS 3 Zrotation Xrotation Yrotation
                  JOINT RightHandMiddle2
                  {
                    OFFSET -4.0984 0.0113983 -0.0242
                    CHANNELS 3 Zrotation Xrotation Yrotation
                    JOINT RightHandMiddle3
                    {
                      OFFSET -2.2716 0.00691223 -0.0138001
                      CHANNELS 3 Zrotation Xrotation Yrotation
                      End Site
                      {
                        OFFSET -2.0404 -0.1441 0.0027
                      }
                    }
                  }
                }
                JOINT RightHandRing1
                {
                  OFFSET -8.5234 0.597198 -2.0164
                  CHANNELS 3 Zrotation Xrotation Yrotation
                  JOINT RightHandRing2
                  {
                    OFFSET -3.7188 -0.188309 -0.2328
                    CHANNELS 3 Zrotation Xrotation Yrotation
                    JOINT RightHandRing3
                    {
                      OFFSET -2.1191 -0.106598 -0.1332
                      CHANNELS 3 Zrotation Xrotation Yrotation
                      End Site
                      {
                        OFFSET -1.8737 -0.2304 -0.0886
                      }
                    }
                  }
                }
                JOINT RightHandPinky1
                {
                  OFFSET -7.9094 -0.601105 -3.4825
                  CHANNELS 3 Zrotation Xrotation Yrotation
                  JOINT RightHandPinky2
                  {
                    OFFSET -2.2874 -0.477005 -0.6314
                    CHANNELS 3 Zrotation Xrotation Yrotation
                    JOINT RightHandPinky3
                    {
                      OFFSET -1.6774 -0.349396 -0.4633
                      CHANNELS 3 Zrotation Xrotation Yrotation
                      End Site
                      {
                        OFFSET -1.4888 -0.4091 -0.3416
                      }
                    }
                  }
                }
                JOINT RightHandThumb1
                {
                  OFFSET -1.833 -1.38751 1.3896
                  CHANNELS 3 Zrotation Xrotation Yrotation
                  JOINT RightHandThumb2
                  {
                    OFFSET -3.41299 -1.12099 2.5732
                    CHANNELS 3 Zrotation Xrotation Yrotation
                    JOINT RightHandThumb3
                    {
                      OFFSET -2.24741 -0.804108 1.6192
                      CHANNELS 3 Zrotation Xrotation Yrotation
                      End Site
                      {
                        OFFSET -1.6527 -0.5689 1.1317
                      }
                    }
                  }
                }
              }
            }
          }
        }
      }
    }
  }
  JOINT RightUpLeg
  {
    OFFSET -9.1966 3.8861 -0.7581
    CHANNELS 3 Zrotation Xrotation Yrotation
    JOINT RightLeg
    {
      OFFSET -0.7359 -41.0265 0
      CHANNELS 3 Zrotation Xrotation Yrotation
      JOINT RightFoot
      {
        OFFSET 0 -40.2855 0
        CHANNELS 3 Zrotation Xrotation Yrotation
        JOINT RightToeBase
        {
          OFFSET 0 -5.6122 11.7359
          CHANNELS 3 Zrotation Xrotation Yrotation
          End Site
          {
            OFFSET 0 0 7.8731
          }
        }
      }
    }
  }
  JOINT LeftUpLeg
  {
    OFFSET 9.1965 3.8864 -0.7581
    CHANNELS 3 Zrotation Xrotation Yrotation
    JOINT LeftLeg
    {
      OFFSET 0.7359 -41.0268 0
      CHANNELS 3 Zrotation Xrotation Yrotation
      JOINT LeftFoot
      {
        OFFSET 0 -40.2855 0
        CHANNELS 3 Zrotation Xrotation Yrotation
        JOINT LeftToeBase
        {
          OFFSET 0 -5.6122 11.7359
          CHANNELS 3 Zrotation Xrotation Yrotation
          End Site
          {
            OFFSET 0 0 7.8731
          }
        }
      }
    }
  }
}
MOTION
Frames:	6
Frame Time:	0.0333333
5.84602e-005 68.8428 3.50346 0 0 -0 0 0 -0 0 0 -0 0 0 -0 0 0 -0 0 0 -0 0 0 -0 0 0 -0 0 0 -0 0 0 -0 0 0 -0 0 0 -0 0 0 -0 0 0 -0 -0.0146107 -8.87603e-005 -2.63497e-007 2.99804e-018 -2.42657e-020 -1.42182e-022 0 0 -0 -0.0187562 -0.001176 5.858e-005 5.06224e-018 3.88251e-019 1.21329e-020 0 0 -0 -0.012269 -0.00324817 0.000675346 -1.74678e-018 3.88251e-019 -0 0 0 -0 0 0 -0 0 0 -0 0 0 -0 0 0 -0 0 0 -0 0 0 -0 0 0 -0 0 0 -0 0 0 -0 0 0 -0 0.0149955 -9.10982e-005 2.64101e-007 -9.69331e-018 1.21329e-020 -4.7394e-023 0 0 -0 0.0189956 -0.00119102 -5.96516e-005 -5.41541e-019 0 2.42657e-020 0 0 -0 0.0122698 -0.00324857 -0.000673756 -2.00796e-019 0 -1.94126e-019 0 0 -0 0 0 -0 0 0 -0 3.39842 1.33031 -0.0637918 -5.65207e-008 0.834868 -0.000436188 -3.39935 -2.16518 -0.0642563 -8.89002e-024 -1.18485e-023 -1.48106e-024 -3.39844 1.35642 0.0640283 -3.18788e-007 0.782166 -0.000588827 3.39931 -2.13858 0.0634662 1.1399e-023 0 -0 
0.078454 1.52213 6.79546 0.645985 -48.0242 -1.50211 -1.92002 11.0956 -0.570946 -3.83625 22.2039 -0.776716 -3.83625 22.2039 -0.776719 2.00902 5.99586 -0.212018 10.9491 -23.9407 13.4889 -13.2752 -6.25033 12.4898 -59.0274 -4.19729 -1.49427 2.83033 -23.8821 -18.0566 15.3463 57.9564 18.3839 -2.12649e-007 -3.35963e-007 7.54875e-007 -2.12649e-007 -3.35963e-007 7.54875e-007 -2.12649e-007 -3.35963e-007 7.54875e-007 -2.12649e-007 -3.35963e-007 7.54875e-007 -0.0145943 -8.73154e-005 2.22748e-006 -2.12645e-007 -3.36059e-007 7.54832e-007 -2.12649e-007 -3.35963e-007 7.54875e-007 -0.0187693 -0.00117791 6.01721e-005 -2.12637e-007 -3.36086e-007 7.54822e-007 -2.12649e-007 -3.35963e-007 7.54875e-007 -0.0122914 -0.00325375 0.000675334 -8.54258e-007 -6.33168e-007 2.68343e-007 -2.12649e-007 -3.35963e-007 7.54875e-007 -2.12649e-007 -3.35963e-007 7.54875e-007 -2.12649e-007 -3.35963e-007 7.54875e-007 7.30681 -3.58306 21.429 6.80661 -19.3977 42.1323 30.2386 -56.6763 28.4471 10.0359 -21.4889 7.45072 4.77083e-015 3.97569e-016 4.77083e-015 3.18055e-015 2.78299e-015 3.18055e-015 4.77083e-015 2.78299e-015 3.18055e-015 4.77083e-015 3.97569e-016 4.77083e-015 0.0150083 -8.88788e-005 4.24017e-006 -0 -5.1684e-015 -0 4.77083e-015 3.97569e-016 4.77083e-015 0.0189639 -0.00119025 -5.81702e-005 1.40256e-006 1.02055e-006 -1.09863e-006 4.77083e-015 3.97569e-016 4.77083e-015 0.0123293 -0.00326408 -0.00067997 -5.51738e-031 -9.93923e-015 -3.18055e-015 4.77083e-015 3.97569e-016 4.77083e-015 3.18055e-015 2.78299e-015 3.18055e-015 4.77083e-015 2.78299e-015 3.18055e-015 -91.376 -73.7079 -102.383 -148.472 76.0508 147.755 21.7738 31.4738 -14.0943 -8.25674e-007 -5.33162e-008 -3.11486e-007 44.6423 -22.429 112.349 -141.74 82.1221 139.986 -56.838 21.5168 56.4664 4.46037e-006 5.00162e-007 -6.32669e-007 
0.078454 1.52213 6.79546 0.645985 -48.0242 -1.50211 -1.92002 11.0956 -0.570944 -3.83625 22.2039 -0.776716 -3.83625 22.2039 -0.776715 1.92385 6.0124 -0.270214 10.9491 -23.9407 13.4889 -13.2752 -6.25033 12.4898 -59.0274 -4.19729 -1.49427 2.8303 -23.8821 -18.0566 15.3463 57.9564 18.3839 6.43293e-007 2.97626e-007 4.86396e-007 2.37621e-006 -4.24249e-007 3.64202e-007 4.77083e-015 6.36111e-015 1.59028e-015 6.43293e-007 2.97626e-007 4.86396e-007 -0.014638 -9.14561e-005 -3.36788e-006 -6.41296e-007 -2.97551e-007 -4.86433e-007 6.43293e-007 2.97626e-007 4.86396e-007 -0.0187564 -0.00117716 5.43808e-005 -4.77083e-015 -3.18055e-015 -0 6.43293e-007 2.97626e-007 4.86396e-007 -0.012327 -0.00326721 0.000678454 -3.97569e-015 0 1.59028e-015 6.43293e-007 2.97626e-007 4.86396e-007 2.37621e-006 -4.24249e-007 3.64202e-007 4.77083e-015 6.36111e-015 1.59028e-015 7.30682 -3.58306 21.429 6.8066 -19.3977 42.1323 30.0741 -56.1454 28.5235 10.0359 -21.4889 7.45073 1.37783e-006 9.57457e-007 -1.10046e-006 -4.55227e-006 -4.74931e-006 7.75147e-006 -1.59028e-015 1.98785e-015 1.59028e-015 1.37783e-006 9.57457e-007 -1.10046e-006 0.0149274 -9.56273e-005 1.07485e-005 4.41391e-032 -1.59028e-015 1.59028e-015 1.37783e-006 9.57457e-007 -1.10046e-006 0.0190226 -0.00119705 -5.85315e-005 -0 -3.57812e-015 -0 1.37783e-006 9.57457e-007 -1.10046e-006 0.0122294 -0.00324286 -0.000670098 1.59028e-015 -2.78299e-015 -0 1.37783e-006 9.57457e-007 -1.10046e-006 -4.55227e-006 -4.74931e-006 7.75147e-006 -1.59028e-015 1.98785e-015 1.59028e-015 -91.376 -73.7079 -102.383 -148.472 76.0508 147.755 21.7738 31.4738 -14.0943 -8.25674e-007 -5.33162e-008 -3.11486e-007 44.6423 -22.429 112.349 -141.74 82.1221 139.986 -56.838 21.5169 56.4664 -2.4673e-006 3.21258e-006 -3.43318e-007 
0.078454 1.52213 6.79546 0.645985 -48.0242 -1.50211 -1.92002 11.0956 -0.570946 -3.83625 22.2039 -0.776716 -3.83625 22.2039 -0.776719 1.83867 6.02904 -0.328382 10.9491 -23.9407 13.4889 -13.2752 -6.25033 12.4898 -59.0274 -4.19729 -1.49427 2.83032 -23.8821 -18.0566 15.3463 57.9564 18.3839 2.12649e-007 3.35963e-007 -7.54875e-007 3.65745e-006 8.81266e-007 -1.41403e-006 2.12649e-007 3.35963e-007 -7.54875e-007 2.12649e-007 3.35963e-007 -7.54875e-007 -0.0146001 -8.67258e-005 -2.2878e-007 2.12645e-007 3.36059e-007 -7.54832e-007 2.12649e-007 3.35963e-007 -7.54875e-007 -0.0187653 -0.00117652 5.76257e-005 -4.28103e-007 3.87007e-008 -1.24127e-006 2.12649e-007 3.35963e-007 -7.54875e-007 -0.0122821 -0.00324765 0.00067901 2.12627e-007 3.36042e-007 -7.54845e-007 2.12649e-007 3.35963e-007 -7.54875e-007 3.65745e-006 8.81266e-007 -1.41403e-006 2.12649e-007 3.35963e-007 -7.54875e-007 7.30681 -3.58306 21.429 6.80661 -19.3977 42.1323 29.9102 -55.6135 28.6017 10.0359 -21.4889 7.45073 -4.77083e-015 -1.31198e-014 -3.18055e-015 -1.59028e-015 -1.23246e-014 -3.18055e-015 -3.18055e-015 -9.93923e-015 -4.77083e-015 -4.77083e-015 -1.31198e-014 -3.18055e-015 0.0149883 -9.15034e-005 1.44099e-006 -3.18055e-015 -3.18055e-015 -4.77083e-015 -4.77083e-015 -1.31198e-014 -3.18055e-015 0.0189651 -0.00118795 -5.86408e-005 -1.27222e-014 -2.78299e-015 6.36111e-015 -4.77083e-015 -1.31198e-014 -3.18055e-015 0.0123137 -0.00325686 -0.000682052 -1.34927e-006 -8.94436e-007 1.10251e-006 -4.77083e-015 -1.31198e-014 -3.18055e-015 -1.59028e-015 -1.23246e-014 -3.18055e-015 -3.18055e-015 -9.93923e-015 -4.77083e-015 -91.3761 -73.7079 -102.383 -148.472 76.0508 147.755 21.7738 31.4739 -14.0943 -4.10953e-006 2.31136e-008 -3.05708e-007 44.6423 -22.429 112.349 -141.74 82.1221 139.986 -56.838 21.5168 56.4664 -1.02048e-005 5.61374e-008 -1.40504e-006 
0.078454 1.52213 6.79546 0.645985 -48.0242 -1.50211 -1.92002 11.0956 -0.570944 -3.83625 22.2039 -0.776716 -3.83625 22.2039 -0.776715 1.75348 6.04575 -0.386531 10.9491 -23.9407 13.4889 -13.2752 -6.25033 12.4898 -59.0274 -4.19729 -1.49427 2.8303 -23.8821 -18.0566 15.3463 57.9564 18.3839 -4.30642e-007 3.83382e-008 -1.24127e-006 4.25299e-007 6.71926e-007 -1.50975e-006 8.55941e-007 6.33588e-007 -2.68481e-007 -4.30642e-007 3.83382e-008 -1.24127e-006 -0.0146153 -8.84826e-005 -2.02459e-006 2.12645e-007 3.36059e-007 -7.54832e-007 -4.30642e-007 3.83382e-008 -1.24127e-006 -0.0187818 -0.00117852 5.98441e-005 2.12637e-007 3.36086e-007 -7.54822e-007 -4.30642e-007 3.83382e-008 -1.24127e-006 -0.0122549 -0.00324771 0.000670913 2.12626e-007 3.36042e-007 -7.54845e-007 -4.30642e-007 3.83382e-008 -1.24127e-006 4.25299e-007 6.71926e-007 -1.50975e-006 8.55941e-007 6.33588e-007 -2.68481e-007 7.30682 -3.58306 21.429 6.80661 -19.3977 42.1323 29.7469 -55.0806 28.6817 10.0358 -21.4889 7.45072 1.32361e-006 8.30714e-007 -1.10442e-006 8.9767e-007 1.19891e-006 -9.38839e-007 -0 0 1.59028e-015 1.32361e-006 8.30714e-007 -1.10442e-006 0.0149636 -9.48381e-005 5.99978e-007 1.32184e-006 8.3058e-007 -1.10453e-006 1.32361e-006 8.30714e-007 -1.10442e-006 0.0189545 -0.00118705 -6.16958e-005 -3.18055e-015 -1.13307e-014 -3.18055e-015 1.32361e-006 8.30714e-007 -1.10442e-006 0.0121985 -0.00323028 -0.000668936 1.32213e-006 8.30985e-007 -1.10446e-006 1.32361e-006 8.30714e-007 -1.10442e-006 8.9767e-007 1.19891e-006 -9.38839e-007 -0 0 1.59028e-015 -91.376 -73.7079 -102.383 -148.472 76.0508 147.755 21.7738 31.4738 -14.0943 -3.28386e-006 7.64271e-008 5.7779e-009 44.6423 -22.429 112.349 -141.74 82.1221 139.986 -56.8381 21.5169 56.4664 2.17937e-007 7.80277e-007 -2.49638e-007 
0.078453 1.52213 6.79546 0.645985 -48.0242 -1.50211 -1.92001 11.0954 -0.570941 -3.83625 22.2039 -0.776716 -3.83625 22.2039 -0.776715 1.66831 6.06255 -0.444722 10.9491 -23.9407 13.4889 -13.2752 -6.25032 12.4898 -59.0274 -4.19729 -1.49427 2.83032 -23.8821 -18.0566 15.3463 57.9563 18.3839 2.12649e-007 3.35963e-007 -7.54875e-007 -5.79985e-007 1.21214e-006 1.85542e-007 -1.95091e-006 1.09616e-006 -1.87396e-006 2.12649e-007 3.35963e-007 -7.54875e-007 -0.0146237 -9.07841e-005 2.73922e-007 -1.95274e-006 1.09639e-006 -1.87382e-006 2.12649e-007 3.35963e-007 -7.54875e-007 -0.0187625 -0.00117495 5.7546e-005 4.25272e-007 6.72173e-007 -1.50965e-006 2.12649e-007 3.35963e-007 -7.54875e-007 -0.0122502 -0.00324196 0.000677709 4.25252e-007 6.72083e-007 -1.50969e-006 2.12649e-007 3.35963e-007 -7.54875e-007 -5.79985e-007 1.21214e-006 1.85542e-007 -1.95091e-006 1.09616e-006 -1.87396e-006 7.30681 -3.58305 21.429 6.80661 -19.3977 42.1323 29.5841 -54.5467 28.7634 10.0359 -21.4889 7.45073 -1.29636e-006 -7.6711e-007 1.10637e-006 1.59028e-015 -1.98785e-016 -1.59028e-015 1.29636e-006 7.6711e-007 -1.10637e-006 -1.29636e-006 -7.6711e-007 1.10637e-006 0.0149897 -9.37732e-005 -4.55554e-006 -1.59028e-015 3.37934e-015 -4.77083e-015 -1.29636e-006 -7.6711e-007 1.10637e-006 0.0190258 -0.0011944 -6.21237e-005 0 4.77083e-015 -0 -1.29636e-006 -7.6711e-007 1.10637e-006 0.0122273 -0.00323675 -0.000670211 -1.59028e-015 2.18663e-015 -1.59028e-015 -1.29636e-006 -7.6711e-007 1.10637e-006 1.59028e-015 -1.98785e-016 -1.59028e-015 1.29636e-006 7.6711e-007 -1.10637e-006 -91.3761 -73.7079 -102.383 -148.472 76.0508 147.755 21.7738 31.4739 -14.0943 -3.97569e-015 0 1.59028e-015 44.6422 -22.429 112.349 -141.74 82.1221 139.986 -56.838 21.5169 56.4664 -5.56597e-015 -3.97569e-015 6.36111e-015 
